<svg version="1" xmlns="http://www.w3.org/2000/svg" width="933.333" height="933.333" viewBox="0 0 700.000000 700.000000"><path d="M519.5 110.1c-7.8 4.2-14.4 18.2-17 35.9-.4 2.5-1.4 5-2.4 5.7-6.7 4.6-19 16-24.7 22.8-5.4 6.5-8.5 12.3-17.1 32-8.8 20.2-12.7 27.4-18.2 33.7-5.4 6.1-9.4 8.5-18.3 10.9-10.2 2.8-17.3 5.6-24.8 10.2-28.5 17-54.2 50.6-69 90.2-3.6 9.4-8.3 25.5-9.4 31.7-.3 1.5-.7 3.1-.9 3.5-.3.5-.8 3.3-1.1 6.3-.4 3-.9 6.6-1.1 8-1.3 6.8-1.9 32.6-1.1 42 2.5 26.4 12.1 54.5 25.2 73.6 2.4 3.5 4 6.5 3.6 6.7-2 1.2-11.2-.6-16.9-3.2-11-5.2-25.7-21.7-31.7-35.6-1-2.2-2.1-4.9-2.6-6-3.4-7.3-6.3-25.2-6.4-38 0-5.1 1.4-22.6 1.8-23.4.2-.3.7-2.9 1-5.6.4-2.8 1.2-7 1.7-9.5.6-2.5 1.2-5.4 1.5-6.5.2-1.1 2.2-8.5 4.4-16.5 12-42.9 14-53.6 14.4-78.5.4-21.2-2.1-39.4-8.1-58-13.8-42.8-42.6-69.3-88.6-81.5-4.2-1.1-9.4-2.3-11.5-2.6-2-.3-5.4-.9-7.5-1.4-4.3-.9-36.3-.6-41.7.4-24.6 4.7-45 14.2-66 30.5-18.5 14.4-31.8 31-40.8 50.7-6.1 13.5-9.7 25-13.2 42.4-1.1 6-2.8 18.9-3.5 27.5-.7 8.1-.8 40.1-.1 43 .2 1.1.7 4.9 1.1 8.5 1.1 10.9 5.5 28.7 9.7 40 11.7 31.1 31.3 54.6 54.8 65.8 13.7 6.5 23.4 8.9 39.6 9.8l10.1.6 2-3.4c12.1-20.5 16-56.9 9.7-89.8-.9-4.7-1.8-9.4-2-10.5-.2-1.1-1.8-6.3-3.5-11.5-4-12.2-4.3-20.3-1.2-32.4 3.4-12.8 8.6-22.9 15.8-30.2 9.9-10 17-9.3 22.8 2.2 1.6 3.1 5.1 15.8 6.2 22.3.3 1.9.7 3.7.9 4 .5.8 1.8 11.5 3 24.6.8 8.6 1.3 16.9 2.1 34.5 1.1 24.6 2.2 42.6 3 48 .2 1.4.7 4.5 1 7 5.3 38.4 19.6 67.1 47.5 95 28 28.1 63 45.9 104 53 9.8 1.7 19 1.9 136.2 1.9 100.9.1 125.7-.1 125.3-1.1-.2-.7-.6-4-.9-7.3-1.2-13.7-8.5-26-17.7-29.8-3.5-1.4-12.2-1.5-18.4-.2-2.8.6-14.5 4.6-24 8.2-5.6 2.1-22.2 1.1-33.6-2-8-2.2-19.9-7-19.9-8 0-.2 2.7-6 5.9-12.9 9.1-19.2 16-40.2 17.8-54.8 1.1-8.4.6-23.4-1.1-34.5-2.3-14.3-2.6-16.2-4.3-24-2.3-10.5-3.4-15.7-3.9-18.5-.2-1.4-.9-4.8-1.5-7.7-.6-2.9-1.2-8.2-1.4-11.8-.2-5.9-.1-6.7 1.8-7.4 2.2-.8 7.5-.6 12.2.4 1.7.4 5.9.9 9.5 1.1 5.5.4 7.1.1 10.2-1.8 7.5-4.6 34.5-22.2 41.5-27 16.8-11.4 27.6-12.9 38.7-5.3 11.1 7.5 16.1 7.6 28.5.4 3.8-2.1 8.2-4.4 9.9-5 2.8-1 3.2-1.5 3.2-4.7 0-9.2-10-21.7-21.5-27.1-4.6-2.2-9.2-3.3-19.5-4.6-35.8-4.5-35.9-4.5-42.2-6.1-.5-.1-1.9-.2-3.3-.3-3.1-.1-8.5-5.6-8.5-8.7 0-3 4.3-4.9 13.1-5.8 9.8-1 18-2.6 20.9-4.1 2.6-1.3 2.6-1.5 1.6-6.4-1.2-5.9-.3-7.6 3.6-6.6 2 .5 2.5 1.3 2.7 4.7.3 5.1.7 5.8 3.2 5.8 1.4 0 1.9-.7 1.9-3 0-1.7.2-3 .5-3s3.2 1.1 6.5 2.5c7.2 3 9.3 3.1 17.3.4 3.4-1.2 7.4-2.3 8.9-2.4 7-.6 15.4-10 15.8-17.5.3-4.9.2-5.1-2.2-9-1.2-1.9-2.3-4.4-2.5-5.5-.5-3.1-7.8-17.2-13.1-25.5-10-15.5-24.6-31.5-39.2-43.2-4.1-3.3-8.3-6.6-9.3-7.4-.9-.8-2-1.4-2.3-1.4-.3 0-2.5-1.4-4.9-3-6.4-4.4-18.8-10.5-28.2-13.9-4.6-1.6-8.3-2.7-8.3-2.5 0 .3-.9 0-2-.6-1-.5-3-3.3-4.4-6.1-6.2-12.2-14.6-22.3-21.4-25.8-4.4-2.3-10.5-2.7-13.7-1z"/></svg>