<svg version="1" xmlns="http://www.w3.org/2000/svg" width="1601.333" height="1601.333" viewBox="0 0 1201.000000 1201.000000"><path d="M917.9 144c-.7.5-1.7.6-2.1.4-.4-.3-.8-.1-.8.4 0 .6-1.2 1.3-2.7 1.7-4.8 1.2-16.3 14.1-21 23.5-4.2 8.6-8.6 21.1-9.9 28.5-.4 2.2-.8 4.9-1 6-1.3 6.9-1.7 12-1.7 19.8v8.7l-8.2 8.5c-4.6 4.7-8.8 8.5-9.4 8.5-.6 0-1.1.4-1.1.8 0 .5-2.8 3.1-6.2 5.9-13.7 11.1-27.5 24.7-31.6 31.1-.9 1.5-1.9 2.9-2.3 3.2-.6.5-9.2 16.9-9.4 18 0 .3-1.5 3.6-3.3 7.3-1.8 3.8-4.6 10.3-6.4 14.5-1.7 4.2-3.7 8.6-4.4 9.7-.7 1.1-1.3 2.2-1.3 2.5.1 2.6-17.5 39.4-20.1 42-.3.3-2.1 3-4.1 6-4.2 6.3-14.6 17-16.6 17-.7 0-1.3.4-1.3.8 0 .8-9.1 5.5-11.2 5.8-.4.1-.9.2-1 .4-.6.4-4.4 1.1-6 1.1-1 0-1.8.4-1.8.9s-.6.7-1.3.4c-.8-.3-2.7 0-4.3.7-1.6.6-4 1.3-5.3 1.5-1.3.3-3.7 1.2-5.2 2-1.6.8-2.9 1.2-2.9.9 0-.4-1.2 0-2.7.8-1.6.8-6.8 3.4-11.8 5.8-4.9 2.3-10.8 5.4-13 6.8-2.2 1.3-4 2.3-4 2 0-.2-1.1.6-2.5 1.8-1.3 1.3-2.8 2.3-3.3 2.3-.4 0-1.4.6-2.2 1.2-.7.7-2.5 2.2-4.1 3.3-1.5 1.1-4 3-5.5 4.2-1.5 1.3-2.9 2.3-3.2 2.3-1.9 0-33.7 31.2-40.2 39.5-2.2 2.7-5 6.1-6.3 7.5-1.2 1.4-2.5 3.3-2.8 4.2-.3 1-.9 1.8-1.3 1.8s-2.8 2.9-5.2 6.5c-2.4 3.6-4.7 6.5-5.1 6.5-.5 0-.8.5-.8 1.1 0 1.2-5.9 10.1-7.3 11-.5.3-.8.9-.7 1.3.1.4-1.1 2.9-2.7 5.4-8.6 13.7-22.6 40.6-21.6 41.6.4.3.1.6-.5.6-.7 0-1.2.6-1.2 1.4 0 .8-.6 2.7-1.4 4.3-2.7 5.2-6.6 14.3-6.6 15.3 0 .6-.4 1.8-.9 2.8-1.3 2.4-6.1 14.9-6.5 17-.1.9-.8 3-1.4 4.5-.7 1.6-1.2 3.3-1.2 3.8s-.9 3.9-2.1 7.5c-1.1 3.5-2.2 7.2-2.4 8.2-.2.9-.4 1.7-.5 1.7-.1 0-.3.7-.5 1.6-.1.9-1.2 5.4-2.3 10-1.2 4.6-2.3 9.5-2.6 10.9-.2 1.4-1.1 6.3-2 11-7.2 38.9-7.9 85.6-2 120.5.3 1.6.7 4.3 1 6 .2 1.6.6 3.9.9 5 .2 1.1 1.1 4.9 1.9 8.5.8 3.6 2 8.6 2.7 11 .7 2.5 1.4 5.3 1.6 6.2.1.9 1.9 6.3 3.8 12 2 5.7 3.7 10.7 3.9 11.3.2.5.8 2.1 1.3 3.5.6 1.4 2.1 4.9 3.2 7.8 5.9 14.9 23.5 46.5 27.5 49.5.6.4-1.4.6-4.4.3-3-.2-5.6-.5-5.7-.6-.2-.2-.7-.4-1.3-.5-.5-.1-1.2-.4-1.5-.5-.3-.1-.8-.3-1.2-.4-2.5-.6-8.8-3-9.7-3.8-.6-.4-3.9-2.6-7.4-4.8-8.5-5.4-26.4-23.5-30.6-30.9-.5-.9-1.2-1.8-1.6-2.1-3.5-2.5-20-34.4-19.7-38 0-.3-.5-1.5-1.2-2.8-1-1.9-4.1-12.8-5.7-19.7-.8-3.7-2.5-14-3.1-19-.9-7.3-.9-43.9 0-52 .4-3.9.9-9 1.2-11.5.2-2.5.4-4.6.5-4.8.2-.1.4-1.1.5-2.2.1-1.1.4-2.1.5-2.3.1-.1.3-1.3.5-2.7.6-5.3 2.3-14.4 3-17 .3-.8.7-3.3 1.1-5.4.3-2.2 1-5 1.5-6.3.5-1.3.8-2.7.7-3.1-.1-.4.1-1.4.5-2.2.3-.8 1.1-3.8 1.7-6.5 1.4-5.8 1.6-6.7 3-12 .6-2.2 1.3-5.1 1.6-6.4.3-1.4.7-2.8 1-3.3.3-.4.7-1.8 1-3 .3-1.3.6-2.8.8-3.3.1-.6.8-3 1.5-5.5s1.5-5.2 1.8-6c.3-.8.7-2 .8-2.6.4-1.5 4.5-15.4 5.3-17.4.3-.8.6-2.1.8-2.9.1-.8 1-3.7 1.9-6.5 1-2.8 1.9-5.8 2-6.6.2-.8.4-1.5.5-1.5.1 0 .3-.7.5-1.6.1-.9 1.1-4.3 2.1-7.5 1-3.3 1.8-6.6 1.9-7.4.1-.8.4-2.2.7-3 2.1-5.5 7.5-31.3 11.3-54 .5-3 1.5-11.5 2.2-19 1.3-14.1.6-48.8-1.2-61-2.7-18.2-3-19.5-5-29.3-.4-2.3-3.5-16.4-4-18.2-1.9-8.4-5.5-20.5-7.1-24.2-.8-1.7-1.4-3.4-1.4-3.9 0-1-4.3-10.4-8.7-18.9-3.5-7-12.4-21.1-15.9-25.5-11.3-13.9-22.5-25.4-32.4-33.1-3-2.3-5.7-4.6-6-4.9-.6-.8-16.3-11.4-17-11.5-.3 0-1.6-.8-3-1.7-7.5-4.8-11.1-6.8-12.4-6.8-.8 0-1.6-.4-1.8-.8-.3-.8-15.2-8.2-16.3-8.2-.3 0-2.4-.9-4.8-1.9-7.5-3.3-12.5-5-13.1-4.4-.3.4-.6.2-.6-.4 0-.6-1-1.3-2.2-1.6-1.3-.3-7.9-2.1-14.7-4.1-6.9-2-13.2-3.6-14.1-3.6-.9 0-2-.3-2.4-.7-.4-.4-1.7-.8-2.9-.9-1.2-.1-3.5-.4-5.2-.8-3.2-.6-11.7-2.2-17.5-3.1-1.9-.3-6.1-.8-9.5-1-3.3-.3-6-.5-6-.6 0-.6-13.7-1.2-30-1.2-18.2-.1-34.6.7-40 1.8-1.1.2-4.2.7-7 1-7.9 1-11.6 1.5-18 2.9-3.3.8-6.7 1.4-7.5 1.4-.8 0-4 .8-7 1.7-3 .9-6.4 1.8-7.4 2-1 .2-3.5 1-5.5 1.7s-3.8 1.3-4.1 1.3c-2.6.5-18.7 6.4-25.7 9.6-2.3 1-4.7 1.9-5.2 1.9-.6 0-1.1.5-1.1 1.1 0 .5-.5.7-1 .4-.6-.3-1-.1-1 .4 0 .6-.3 1-.7.9-.8-.2-10.3 4.2-11.3 5.2-1.2 1.2-11.2 7-12.1 7-.5 0-.9.4-.9.8 0 .5-1.2 1.5-2.7 2.3-1.6.8-3 1.6-3.3 1.9-.3.3-2.3 1.9-4.5 3.5-7.1 5.3-19.4 16.3-24.4 21.9-1.4 1.5-3.5 3.8-4.6 5.1-2 2.2-4.9 5.8-11.3 13.9-1.7 2.2-3.6 4.6-4.2 5.2-.5.7-3.7 5.2-7.2 10-3.4 4.9-6.7 9.2-7.3 9.6-.5.4-.6.8-.2.8.5 0-.4 1.7-2 3.7-1.5 2.1-3.4 4.9-4.2 6.3-.8 1.4-3.7 6.3-6.4 11-5.8 9.9-17.4 33.9-20.7 42.5-1.2 3.3-2.8 7.4-3.6 9.1-1.1 2.5-6.2 17.6-7 20.9-5.5 21.5-7.3 28.6-7.8 31-1.1 6.2-1.6 9.1-2.2 11.4-.3 1.3-.7 4.5-1 7-.2 2.5-.7 5.7-.9 7.1-.5 2.4-.7 4.1-2 16.5-2.7 24.6-2.7 81.6 0 99 .4 2.7.8 5.7 2.1 15.5.2 1.9.6 4.6.9 6 .3 1.4.8 3.7 1 5.2.3 1.6.7 3.8.9 5 .3 1.8 2.3 10.5 5.1 21.8 1.1 4.5 5.9 19.7 7.2 23 .3.8.8 2.4 1 3.4.2 1.1.8 2.5 1.4 3.3.6.7.9 1.3.6 1.3-.3 0 1.3 4.2 3.4 9.2 2.2 5.1 4.2 10 4.4 10.8.5 2 13.5 28.4 14.3 29 .4.3.8 1.2 1 2 .5 2 7.4 13.4 8.4 13.8.4.2.6.8.2 1.3-.3.5-.1.9.4.9s2.1 1.8 3.5 3.9c3.2 4.8 17.2 19.1 24.7 25.3 15 12.3 37.6 25 55.5 31.3 2.8.9 5.7 2 6.5 2.3.8.3 1.7.6 2 .6.3.1 1.1.5 1.8.9.6.5 1.2.6 1.2.4 0-.3 2.1.1 4.7.9 7.8 2.4 22.8 5.2 31.3 6 6.1.5 23.5.5 29 0 2.5-.2 5.5-.4 6.7-.5 2.1-.1 5.3-4.5 9.7-13.6 6.5-13.4 7.5-15.6 7.4-15.8-.1-.1 1.3-4.6 3.1-9.9 5.3-16.3 8.4-32.3 10.6-54.8.6-5.9.7-41.2.1-46-.9-7.6-1.9-16.3-2.2-20-.2-1.9-.5-4.4-.7-5.5-.5-2.4-2-11.4-2.2-13.5-.1-.8-.5-2.6-.8-4-.6-2.5-6-25.1-6.2-26 0-.3-1.4-4.3-2.9-9-1.6-4.7-2.9-9-3.1-9.5-.1-.6-.5-1.8-.9-2.7-.4-.9-.9-2.5-1.1-3.5-.2-1-.4-1.8-.6-1.8-.1 0-.2-1.1-.3-2.5-.1-1.4-.4-3-.7-3.5-1-2.2-.1-19.3 1.6-28.6.7-3.7 5.1-18.8 6.6-22.4.7-1.7 1.3-3.5 1.4-4.1.2-.6 2.1-4.7 4.3-9.1 10.9-21.8 24.6-36.1 35.5-37 6.4-.5 10.7 2.9 15.5 12.3 3.9 7.5 6.9 16.3 8.8 25.4.3 1.4.9 4.1 1.4 6 .5 1.9 1.1 4.6 1.4 6 .8 5 1.9 10.5 2.3 12.5.8 3.8 2.2 13 2.8 17.5.3 2.5.7 6.1 1 8.1 1.1 8.8 1.7 14.8 2 19.4.1 2.7.4 5 .5 5 .1 0 .3 3.4.5 7.5s.6 11.5.9 16.5c.6 8.3.9 16 2.1 45.5.3 5.8.7 15 1 20.5.3 5.5.7 13.7.9 18.3.2 4.6.7 8.6 1 8.9.3.3.1 1.4-.5 2.4-.5 1.1-.6 1.9-.1 1.9.4 0 .9 1.5.9 3.3.1 1.7.4 5.9.7 9.2.4 3.3.9 8.7 1.2 12 .2 3.3.7 7.1 1 8.5.3 1.4.7 4.3 1 6.5.2 2.2.7 5.6 1.1 7.5.3 1.9.6 4.5.7 5.7.1 1.3.5 2.3.9 2.3.5 0 .6.4.3.8s-.1 2.6.4 4.8c.9 4 1.8 8.3 2.5 11.9.2 1.1 1.5 6.3 3 11.5s2.7 10.3 2.8 11.2c.1 1 .5 1.8.9 1.8s.7.3.6.7c-.2.9 3.7 13.1 5.9 18.3.8 1.9 1.8 4.4 2.2 5.5 1.2 3 14.4 29.9 15 30.5.4.3 2.4 3.4 4.5 7 3.6 5.9 16.8 24.1 22.7 31.4 6.2 7.5 24.5 26.3 31.5 32.3 2.7 2.3 6.5 5.6 8.4 7.3 12.4 10.8 39.1 29.2 53.8 37.1 1.8.9 3.9 2.3 4.7 2.9.8.7 1.5.9 1.5.6 0-.4 1.2.1 2.7 1.2 4.2 2.9 23.7 12.1 37.3 17.6 3.6 1.5 7.4 3.1 8.5 3.6 1.1.5 6.3 2.3 11.5 4.1 5.2 1.7 10.4 3.5 11.5 4 1.8.7 22.1 6.4 27 7.4 1.1.3 2.9.7 4 .9 6.7 1.6 17.4 3.8 19.5 4.2 1.4.2 4.1.7 6 1 14.6 2.5 21.4 3.5 27 3.9 2.5.2 4.5.4 4.5.5 0 .2 13.7 1.4 32 2.6 3.3.2 99.5.6 213.8.8l207.7.4.1-6.6c.1-3.7.1-7 .1-7.3-.1-.3-.3-3.1-.6-6.3-1.5-14.4-8.3-33.9-15.3-43.5-4.9-6.6-12.5-13.1-19.2-16.3-6.2-3-7.3-3.2-17.6-3.3-6 0-13 .3-15.5.7-5.1.7-19.4 4.7-28.5 7.8-3.3 1.2-6.6 2.3-7.3 2.5-.7.3-1.4.3-1.6.2-.1-.1-1 .4-1.9 1.2-1 .7-1.7 1-1.7.5s-.4-.3-.9.4c-.4.7-1.4 1.4-2.2 1.6-.8.1-2.4.8-3.7 1.5-1.3.7-3.3 1.5-4.5 1.7-2.5.6-25.9.5-35.7-.1-3.6-.2-11-.6-16.5-.9-13.7-.8-21-1.5-27.5-2.6-3-.6-6.1-1.1-6.7-1.2-.7-.1-1.3-.5-1.3-1s-.4-.7-.9-.3c-.5.3-1.8-.6-2.9-2-1.7-2.1-1.8-3.1-1-6.7 1.5-6.9 9.5-23.8 11.2-23.8.5 0 .6-.3.3-.6-.4-.4.4-1.9 1.6-3.4 1.2-1.5 3.1-4 4.2-5.6 1.1-1.5 3.4-4.4 5-6.5 7.2-8.8 8.6-10.7 13.2-17 5.6-7.6 5.7-7.9 11.8-18.1 2.5-4.2 4.5-8.4 4.5-9.3 0-.8.5-1.5 1-1.5.6 0 1-.8 1-1.8s.3-2.2.8-2.6c.4-.4.7-1.1.7-1.4 0-.4.5-2.1 1.2-3.7 2.5-6.8 4.9-16.7 7.8-33 .4-2.5 1.7-21.9 1.7-25-.1-2.1-1.4-18.1-1.6-20-1.1-7.4-2-15.1-1.8-15.8.1-.4-.2-.7-.7-.7-.5 0-.8-.8-.7-1.7.2-1-.3-4.3-1.1-7.3s-1.8-7.1-2.3-9c-1.3-5.1-8.8-28.7-11-34.5-4.3-11.6-12-31.3-13.6-35-1-2.2-1.9-4.5-2-5-.2-.6-1.9-5.6-3.9-11.3-3.9-11-4.6-13.6-4.7-16.7-.1-4.9-.3-4.8 8.5-4.1 8.6.8 12.9 1.3 13.7 1.7.3.1 1 .3 1.5.4l1.5.5c1.1.4 4.7 1 7.5 1.3 1.7.2 3.5.5 4 .8 3.4 1.6 23.5-2.9 23.5-5.3 0-.4.5-.8 1-.8.6 0 3.8-2 7.3-4.5 11.2-7.9 12.1-8.6 22.2-15 5.5-3.5 10.9-7.1 12-7.9 1-.9 2.3-1.6 2.7-1.6.5 0 3.1-1.6 5.8-3.5 2.7-1.9 5.5-3.6 6.2-3.7.7-.2 1.5-.6 1.8-.9.6-.7 21.9-15.1 31.3-21 3.9-2.6 7.5-4.5 8-4.2.4.2.7 0 .7-.5 0-.7 4.4-2.1 12-3.9 7-1.7 20.5.7 27.5 4.9 1.7 1 3.9 2.2 5 2.7 1.2.5 2.7 1.6 3.4 2.5.7.9 2 1.6 2.7 1.6.8 0 1.4.4 1.4.8 0 1.1 6.5 4.2 12 5.6 11.6 3 21.7.1 42.5-12.1 7.2-4.2 11.5-6 15.9-6.8 4.7-.9 6.2-3.8 6.5-12.6.3-7.4-1.1-12.3-6.2-22.4-4.1-8.1-16.2-21.3-24.2-26.3-2.2-1.4-4.2-2.8-4.5-3.2-.7-.9-12.9-6.6-17-7.8-4.5-1.4-12-2.8-20-3.7-1.4-.1-4.7-.5-7.5-.9-10.1-1.3-14.1-1.8-17.5-2.1-1.9-.2-4.8-.6-6.5-.9-1.6-.3-5.8-.8-9.3-1.1-3.5-.4-7.3-.8-8.5-1.1-1.2-.2-4.2-.6-6.7-.9-2.5-.3-5.6-.8-7-1-1.4-.2-4.3-.7-6.5-1-2.3-.3-5.2-.8-6.5-1.1-1.4-.2-3.8-.7-5.5-.9-1.6-.3-3.7-.7-4.5-.8-.8-.2-3.7-.7-6.3-1.2-5.1-.8-8.5-3.4-11.3-8.7-1.3-2.6-1.3-2.8.8-4.2 2.8-1.8 14-3.9 26.8-5 3.6-.4 7.9-.9 9.5-1.1 6.2-1 9.1-1.5 11.3-2 1.2-.3 3.1-.7 4.2-.9 3.8-.9 10.5-4.4 13.2-7 2.7-2.6 2.8-2.8 1.3-6.3-.8-2-1.7-4.8-2-6.2-.3-1.4-.7-3.8-1-5.4-.4-1.8-.1-2.6.6-2.5.7.2 7.5 3.5 15.3 7.4 13.4 6.8 20.2 9.7 23.6 10 3.3.3 8.5.6 9 .4.3 0 2.4-.3 4.8-.6 5.1-.5 19.9-5.1 20.7-6.5.4-.5 1.5-.9 2.6-.9 1 0 1.9-.3 1.9-.8 0-.4 1.7-1.6 3.7-2.7 5.9-3.1 16.1-13.3 20-19.9 1.9-3.4 3.6-6.6 3.8-7.1.1-.6.5-1.7.8-2.5.4-.8.8-2.4 1-3.5.1-1.1.5-2.5.8-3 .5-.9.4-17-.1-17-.2 0-.5-1.2-1.4-5.2-.9-4-8.9-19-18.1-33.7-2.8-4.5-10.4-16.7-11.8-19.1-1.2-1.9-2.1-3.1-4.4-5.9-.7-.8-1.3-2-1.3-2.6 0-.5-.4-1-1-1-.5 0-1-.5-1-1.1 0-.5-1.3-2.7-2.8-4.7-1.6-2-4.5-6-6.5-8.7-14.9-20.2-23.6-30.4-40.3-47-10.9-10.8-16-15.5-21.4-19.6-1.9-1.5-4.5-3.7-5.7-4.8-1.3-1.2-2.3-1.9-2.3-1.6 0 .3-1.2-.6-2.7-2-1.5-1.4-3.1-2.5-3.5-2.5-.3 0-1.3-.6-2-1.3-1.2-1.1-4.7-3.5-12.3-8.3-4.6-2.9-6-3.7-12.2-6.9-3.2-1.7-5.9-3.3-6.1-3.8-.2-.4-1.1-.7-2.1-.7-.9 0-2.1-.4-2.6-.9-2.9-2.8-20.9-8.8-34.8-11.6-5.2-1.1-5.9-1.7-5.6-4.1 0-.4-.3-1-.8-1.3-1-.7-6.3-8.8-6.3-9.6 0-.3-.4-1.1-1-1.8-1.5-1.8-10-14.9-10-15.4 0-.2-.5-.9-1-1.6-.6-.7-3.4-4.4-6.2-8.2-2.9-3.9-5.7-7.6-6.3-8.4-2.5-3.3-16.2-16.7-18.2-17.8-6.1-3.4-12.6-5.1-19.6-5.1-4.1 0-8 .4-8.8.8z"/></svg>