<svg xmlns="http://www.w3.org/2000/svg" width="1201" height="915" version="1"><path fill="#a4683b" stroke="#7b4e2d" stroke-width="10" d="M737 278c44-8 56-67 83-120 13-27 46-43 64-67-4-35 17-108 62-80 21 17 48 66 48 66l23 5c80 30 131 102 169 168 24 39-12 73-48 76-23 4-67-45-50 4-17 17-96 1-59 36 37 8 68 10 110 16 27 3 64 37 56 64-23 4-39 31-67 16-31-25-54-16-77 1-24 17-49 30-72 47-28 22-38 1-71 6-8 25 60 116 39 203-11 59-52 73-62 116-5 20 32 17 70 20 8 0 22 1 31-1 7-4 43-19 64-18 37-1 50 49 48 74h-46l-245-1c-86 1-166 6-254-24-72-25-140-71-181-136-70-110-31-248-66-367-25-84-97 36-77 91 25 69 29 163-8 223-66 9-141-30-168-79C22 561 6 507 5 437 4 333 29 254 94 177c66-77 198-91 293-58 69 24 120 70 137 137 22 85 14 137-13 226-25 82-56 189 13 269 13 15 36 37 67 33-137-186 0-476 146-506z"/><ellipse cx="1092" cy="-322" stroke="#000" stroke-width="3" rx="23" ry="19" transform="matrix(.8873 .46119 -.47004 .88264 -49 -30)"/></svg>