<svg xmlns="http://www.w3.org/2000/svg" width="1300" height="1300"><path fill="#d27a45" stroke="#9e5c34" stroke-width="5" d="M1246.6 602.1c-11.7-12.8-22-21.8-32.6-33.4-8.8 5.1-10.3 5.9-16.2 12.2a66.5 66.5 0 0 0-12.4 20.5c-1.5 5-2.1 9.8-.3 14.6-3.9 15.8.6 15.8 12.8 13.3 7.7 2.3 16 .6 23-2.9a53.4 53.4 0 0 0 15.7-11c4-4.1 7.8-8.3 10-13.3z"/><path fill="#b5795c" stroke="#9e5c34" stroke-width="5" d="M1224.3 555.7c-1.6 0-3.2.2-4.7.8-5 2.4-7.3 9.7-3.6 14.2l32.6 33.4c6 2.5 12.7-3 12.7-9.2.8-6.8-5.7-12.2-6.7-18.7-1.3-3.9 2.8-11.7-1.7-13-5-1-11 1.2-15.3-2.6-3.7-3-8.5-5-13.3-5z"/><path fill="#a4683b" stroke="#7b4e2d" stroke-width="10" d="M773.3 470.8c44-8.7 56.3-67.4 82.6-120.5 13.4-27 46-42.9 64.1-67.1-3.6-34.6 16.7-107.3 62.5-79.6 20.7 16.8 47.3 65.7 47.3 65.7s12.2 2.2 23.3 5c80 30.7 131.4 102 169.4 167.9 23.2 39.8-12.3 73.7-48 76.2-23.2 3.8-67.6-44.4-50.5 4-17.2 17.2-96 .8-58.4 36.5 36.8 7.6 67.4 10.1 109.2 15.6 27.1 2.8 64.2 36.7 56.4 63.5-22.8 4.8-39.4 31.8-67.4 16-30.9-24.1-54-15-77 1.2-23.7 16.8-48.6 30-71.3 47.6-28.7 22.1-38 .5-71.6 5.6-7.5 24.8 60.5 116.6 39.1 202.7-11 59-51.7 73.4-62.2 116.7-4.4 19.7 32.7 17 70 19.3 8.5.5 22.6 1.4 31 0 7.3-4.6 43.2-19.6 64.4-18.6 37.3-1 49.7 49.4 47.7 73.7-17.3 0-11.2.3-46.2 0-72.4.2-171.1-.4-245-.3-85.1.2-165.4 6-253.8-24.3-72-24.6-139.4-70.8-181.1-136.5-70-110-30.5-248-65.8-366.8-24.8-83.6-96.6 36.1-76.9 91 25 69.3 29 163.7-7.8 223-66 9.4-141-29.8-168.1-78.9a362.2 362.2 0 0 1-48-180c-1.4-103.9 23.8-183 89.3-259.6 65.8-76.9 198-91.7 292.5-58.2C491.7 336 542.7 382 560 448.1c22.3 85 14.5 137.4-13.2 226.8-24.9 81.2-56 188.6 13.7 268.4 12.8 14.8 35.5 37 67 33.3-137.4-185.6-.9-475.7 145.8-505.8z"/><g transform="translate(0 162.7)"><ellipse cx="1080.4" cy="-316.2" stroke="#000" stroke-width="2.5" rx="23" ry="19.2" transform="matrix(.8873 .46119 -.47004 .88264 0 0)"/></g></svg>