<svg xmlns="http://www.w3.org/2000/svg" width="1300" height="1300" version="1"><path fill="#a4683b" stroke="#7b4e2d" stroke-width="10" d="M787 471c44-9 56-68 82-121 14-27 46-43 64-67-3-34 17-107 63-79 21 16 47 65 47 65l23 5c80 31 132 102 170 168 23 40-12 74-48 76-23 4-68-44-51 4-17 18-96 1-58 37 37 7 67 10 109 15 27 3 64 37 56 64-22 5-39 32-67 16-31-24-54-15-77 1-24 17-49 30-71 48-29 22-38 0-72 5-7 25 61 117 39 203-11 59-51 73-62 117-4 20 33 17 70 19 9 1 23 2 31 0 7-4 43-19 64-19 38-1 50 50 48 74H856c-85 0-165 6-254-24-72-25-139-71-181-137-70-110-30-248-66-367-25-83-96 36-77 91 25 70 30 164-7 223-66 10-141-30-169-79-30-55-47-110-48-180-1-103 24-183 90-259 66-77 198-92 292-58 69 24 120 70 137 136 23 85 15 137-13 227-25 81-56 189 14 268 13 15 35 37 67 34-138-186-1-476 146-506z"/><ellipse cx="1092" cy="-322" stroke="#000" stroke-width="3" rx="23" ry="19" transform="matrix(.8873 .46119 -.47004 .88264 0 163)"/></svg>